<?xml version="1.0" encoding="UTF-8"?>
<!DOCTYPE svg PUBLIC "-//W3C//DTD SVG 1.1//EN" "http://www.w3.org/Graphics/SVG/1.1/DTD/svg11.dtd">
<svg width="306mm" height="151mm" viewBox="0 0 30600 15100" version="1.1" xmlns="http://www.w3.org/2000/svg" stroke-width="28.222" stroke-linejoin="round" xml:space="preserve">
 <path fill="rgb(255,255,255)" stroke="none" d="M 15298,15127 L 3,15127 3,0 30593,0 30593,15127 15298,15127 Z"/>
 <path fill="none" stroke="rgb(179,179,179)" stroke-linejoin="round" d="M 13655,14179 L 1713,14179 1713,502 25596,502 25596,14179 13655,14179 Z"/>
 <path fill="none" stroke="rgb(179,179,179)" stroke-linejoin="round" d="M 25596,14178 L 1713,14178"/>
 <path fill="none" stroke="rgb(179,179,179)" stroke-linejoin="round" d="M 25596,12224 L 1713,12224"/>
 <path fill="none" stroke="rgb(179,179,179)" stroke-linejoin="round" d="M 25596,10270 L 1713,10270"/>
 <path fill="none" stroke="rgb(179,179,179)" stroke-linejoin="round" d="M 25596,8316 L 1713,8316"/>
 <path fill="none" stroke="rgb(179,179,179)" stroke-linejoin="round" d="M 25596,6363 L 1713,6363"/>
 <path fill="none" stroke="rgb(179,179,179)" stroke-linejoin="round" d="M 25596,4409 L 1713,4409"/>
 <path fill="none" stroke="rgb(179,179,179)" stroke-linejoin="round" d="M 25596,2455 L 1713,2455"/>
 <path fill="none" stroke="rgb(179,179,179)" stroke-linejoin="round" d="M 25596,501 L 1713,501"/>
 <path fill="none" stroke="rgb(179,179,179)" stroke-linejoin="round" d="M 1713,14328 L 1713,14178"/>
 <path fill="none" stroke="rgb(179,179,179)" stroke-linejoin="round" d="M 1713,14328 L 1713,14178"/>
 <path fill="none" stroke="rgb(179,179,179)" stroke-linejoin="round" d="M 6442,14328 L 6442,14178"/>
 <path fill="none" stroke="rgb(179,179,179)" stroke-linejoin="round" d="M 6442,14328 L 6442,14178"/>
 <path fill="none" stroke="rgb(179,179,179)" stroke-linejoin="round" d="M 11172,14328 L 11172,14178"/>
 <path fill="none" stroke="rgb(179,179,179)" stroke-linejoin="round" d="M 11172,14328 L 11172,14178"/>
 <path fill="none" stroke="rgb(179,179,179)" stroke-linejoin="round" d="M 15900,14328 L 15900,14178"/>
 <path fill="none" stroke="rgb(179,179,179)" stroke-linejoin="round" d="M 15900,14328 L 15900,14178"/>
 <path fill="none" stroke="rgb(179,179,179)" stroke-linejoin="round" d="M 20630,14328 L 20630,14178"/>
 <path fill="none" stroke="rgb(179,179,179)" stroke-linejoin="round" d="M 20630,14328 L 20630,14178"/>
 <path fill="none" stroke="rgb(179,179,179)" stroke-linejoin="round" d="M 25359,14328 L 25359,14178"/>
 <path fill="none" stroke="rgb(179,179,179)" stroke-linejoin="round" d="M 25359,14328 L 25359,14178"/>
 <path fill="none" stroke="rgb(179,179,179)" stroke-linejoin="round" d="M 1713,14178 L 25596,14178"/>
 <path fill="none" stroke="rgb(179,179,179)" stroke-linejoin="round" d="M 1563,14178 L 1713,14178"/>
 <path fill="none" stroke="rgb(179,179,179)" stroke-linejoin="round" d="M 1563,14178 L 1713,14178"/>
 <path fill="none" stroke="rgb(179,179,179)" stroke-linejoin="round" d="M 1563,12223 L 1713,12223"/>
 <path fill="none" stroke="rgb(179,179,179)" stroke-linejoin="round" d="M 1563,12223 L 1713,12223"/>
 <path fill="none" stroke="rgb(179,179,179)" stroke-linejoin="round" d="M 1563,10269 L 1713,10269"/>
 <path fill="none" stroke="rgb(179,179,179)" stroke-linejoin="round" d="M 1563,10269 L 1713,10269"/>
 <path fill="none" stroke="rgb(179,179,179)" stroke-linejoin="round" d="M 1563,8315 L 1713,8315"/>
 <path fill="none" stroke="rgb(179,179,179)" stroke-linejoin="round" d="M 1563,8315 L 1713,8315"/>
 <path fill="none" stroke="rgb(179,179,179)" stroke-linejoin="round" d="M 1563,6362 L 1713,6362"/>
 <path fill="none" stroke="rgb(179,179,179)" stroke-linejoin="round" d="M 1563,6362 L 1713,6362"/>
 <path fill="none" stroke="rgb(179,179,179)" stroke-linejoin="round" d="M 1563,4408 L 1713,4408"/>
 <path fill="none" stroke="rgb(179,179,179)" stroke-linejoin="round" d="M 1563,4408 L 1713,4408"/>
 <path fill="none" stroke="rgb(179,179,179)" stroke-linejoin="round" d="M 1563,2454 L 1713,2454"/>
 <path fill="none" stroke="rgb(179,179,179)" stroke-linejoin="round" d="M 1563,2454 L 1713,2454"/>
 <path fill="none" stroke="rgb(179,179,179)" stroke-linejoin="round" d="M 1563,500 L 1713,500"/>
 <path fill="none" stroke="rgb(179,179,179)" stroke-linejoin="round" d="M 1563,500 L 1713,500"/>
 <path fill="none" stroke="rgb(179,179,179)" stroke-linejoin="round" d="M 1713,14178 L 1713,501"/>
 <path fill="none" stroke="rgb(204,255,153)" stroke-width="80" stroke-linejoin="round" d="M 2658,7223 L 4787,6498 6915,7223 8097,7344 12117,7344 12354,7344 12827,7223 15427,7223 23467,6861 25596,7223"/>
 <path fill="rgb(204,255,153)" stroke="none" d="M 2533,7223 L 2658,7348 2783,7223 2658,7098 2533,7223 Z"/>
 <path fill="none" stroke="rgb(204,255,153)" stroke-linejoin="round" d="M 2533,7223 L 2658,7348 2783,7223 2658,7098 2533,7223 Z"/>
 <path fill="rgb(204,255,153)" stroke="none" d="M 4662,6498 L 4787,6623 4912,6498 4787,6373 4662,6498 Z"/>
 <path fill="none" stroke="rgb(204,255,153)" stroke-linejoin="round" d="M 4662,6498 L 4787,6623 4912,6498 4787,6373 4662,6498 Z"/>
 <path fill="rgb(204,255,153)" stroke="none" d="M 6790,7223 L 6915,7348 7040,7223 6915,7098 6790,7223 Z"/>
 <path fill="none" stroke="rgb(204,255,153)" stroke-linejoin="round" d="M 6790,7223 L 6915,7348 7040,7223 6915,7098 6790,7223 Z"/>
 <path fill="rgb(204,255,153)" stroke="none" d="M 7972,7344 L 8097,7469 8222,7344 8097,7219 7972,7344 Z"/>
 <path fill="none" stroke="rgb(204,255,153)" stroke-linejoin="round" d="M 7972,7344 L 8097,7469 8222,7344 8097,7219 7972,7344 Z"/>
 <path fill="rgb(204,255,153)" stroke="none" d="M 11992,7344 L 12117,7469 12242,7344 12117,7219 11992,7344 Z"/>
 <path fill="none" stroke="rgb(204,255,153)" stroke-linejoin="round" d="M 11992,7344 L 12117,7469 12242,7344 12117,7219 11992,7344 Z"/>
 <path fill="rgb(204,255,153)" stroke="none" d="M 12229,7344 L 12354,7469 12479,7344 12354,7219 12229,7344 Z"/>
 <path fill="none" stroke="rgb(204,255,153)" stroke-linejoin="round" d="M 12229,7344 L 12354,7469 12479,7344 12354,7219 12229,7344 Z"/>
 <path fill="rgb(204,255,153)" stroke="none" d="M 12702,7223 L 12827,7348 12952,7223 12827,7098 12702,7223 Z"/>
 <path fill="none" stroke="rgb(204,255,153)" stroke-linejoin="round" d="M 12702,7223 L 12827,7348 12952,7223 12827,7098 12702,7223 Z"/>
 <path fill="rgb(204,255,153)" stroke="none" d="M 15302,7223 L 15427,7348 15552,7223 15427,7098 15302,7223 Z"/>
 <path fill="none" stroke="rgb(204,255,153)" stroke-linejoin="round" d="M 15302,7223 L 15427,7348 15552,7223 15427,7098 15302,7223 Z"/>
 <path fill="rgb(204,255,153)" stroke="none" d="M 23342,6861 L 23467,6986 23592,6861 23467,6736 23342,6861 Z"/>
 <path fill="none" stroke="rgb(204,255,153)" stroke-linejoin="round" d="M 23342,6861 L 23467,6986 23592,6861 23467,6736 23342,6861 Z"/>
 <path fill="rgb(204,255,153)" stroke="none" d="M 25471,7223 L 25596,7348 25721,7223 25596,7098 25471,7223 Z"/>
 <path fill="none" stroke="rgb(204,255,153)" stroke-linejoin="round" d="M 25471,7223 L 25596,7348 25721,7223 25596,7098 25471,7223 Z"/>
 <path fill="none" stroke="rgb(0,0,0)" stroke-linejoin="round" d="M 2658,10655 L 2658,7223 2658,3791"/>
 <path fill="none" stroke="rgb(0,0,0)" stroke-linejoin="round" d="M 2758,10655 L 2558,10655"/>
 <path fill="none" stroke="rgb(0,0,0)" stroke-linejoin="round" d="M 2558,3791 L 2758,3791"/>
 <path fill="none" stroke="rgb(0,0,0)" stroke-linejoin="round" d="M 4787,9993 L 4787,6498 4787,3002"/>
 <path fill="none" stroke="rgb(0,0,0)" stroke-linejoin="round" d="M 4887,9993 L 4687,9993"/>
 <path fill="none" stroke="rgb(0,0,0)" stroke-linejoin="round" d="M 4687,3002 L 4887,3002"/>
 <path fill="none" stroke="rgb(0,0,0)" stroke-linejoin="round" d="M 6915,10918 L 6915,7223 6915,3528"/>
 <path fill="none" stroke="rgb(0,0,0)" stroke-linejoin="round" d="M 7015,10918 L 6815,10918"/>
 <path fill="none" stroke="rgb(0,0,0)" stroke-linejoin="round" d="M 6815,3528 L 7015,3528"/>
 <path fill="none" stroke="rgb(0,0,0)" stroke-linejoin="round" d="M 8097,11221 L 8097,7344 8097,3466"/>
 <path fill="none" stroke="rgb(0,0,0)" stroke-linejoin="round" d="M 8197,11221 L 7997,11221"/>
 <path fill="none" stroke="rgb(0,0,0)" stroke-linejoin="round" d="M 7997,3466 L 8197,3466"/>
 <path fill="none" stroke="rgb(0,0,0)" stroke-linejoin="round" d="M 12117,10374 L 12117,7344 12117,4314"/>
 <path fill="none" stroke="rgb(0,0,0)" stroke-linejoin="round" d="M 12217,10374 L 12017,10374"/>
 <path fill="none" stroke="rgb(0,0,0)" stroke-linejoin="round" d="M 12017,4314 L 12217,4314"/>
 <path fill="none" stroke="rgb(0,0,0)" stroke-linejoin="round" d="M 12354,11825 L 12354,7344 12354,2862"/>
 <path fill="none" stroke="rgb(0,0,0)" stroke-linejoin="round" d="M 12454,11825 L 12254,11825"/>
 <path fill="none" stroke="rgb(0,0,0)" stroke-linejoin="round" d="M 12254,2862 L 12454,2862"/>
 <path fill="none" stroke="rgb(0,0,0)" stroke-linejoin="round" d="M 12827,11223 L 12827,7223 12827,3223"/>
 <path fill="none" stroke="rgb(0,0,0)" stroke-linejoin="round" d="M 12927,11223 L 12727,11223"/>
 <path fill="none" stroke="rgb(0,0,0)" stroke-linejoin="round" d="M 12727,3223 L 12927,3223"/>
 <path fill="none" stroke="rgb(0,0,0)" stroke-linejoin="round" d="M 15427,10404 L 15427,7223 15427,4041"/>
 <path fill="none" stroke="rgb(0,0,0)" stroke-linejoin="round" d="M 15527,10404 L 15327,10404"/>
 <path fill="none" stroke="rgb(0,0,0)" stroke-linejoin="round" d="M 15327,4041 L 15527,4041"/>
 <path fill="none" stroke="rgb(0,0,0)" stroke-linejoin="round" d="M 23467,10792 L 23467,6861 23467,2929"/>
 <path fill="none" stroke="rgb(0,0,0)" stroke-linejoin="round" d="M 23567,10792 L 23367,10792"/>
 <path fill="none" stroke="rgb(0,0,0)" stroke-linejoin="round" d="M 23367,2929 L 23567,2929"/>
 <path fill="none" stroke="rgb(0,0,0)" stroke-linejoin="round" d="M 25596,10679 L 25596,7223 25596,3767"/>
 <path fill="none" stroke="rgb(0,0,0)" stroke-linejoin="round" d="M 25696,10679 L 25496,10679"/>
 <path fill="none" stroke="rgb(0,0,0)" stroke-linejoin="round" d="M 25496,3767 L 25696,3767"/>
 <path fill="none" stroke="rgb(131,202,255)" stroke-width="80" stroke-linejoin="round" d="M 2658,2387 L 4787,2559 6915,2525 8097,2542 12117,2905 12354,2577 12827,2819 15427,2888 23467,2784 25596,2042"/>
 <path fill="rgb(131,202,255)" stroke="none" d="M 2533,2262 L 2533,2512 2783,2512 2783,2262 2533,2262 Z"/>
 <path fill="none" stroke="rgb(131,202,255)" stroke-linejoin="round" d="M 2533,2262 L 2533,2512 2783,2512 2783,2262 2533,2262 Z"/>
 <path fill="rgb(131,202,255)" stroke="none" d="M 4662,2434 L 4662,2684 4912,2684 4912,2434 4662,2434 Z"/>
 <path fill="none" stroke="rgb(131,202,255)" stroke-linejoin="round" d="M 4662,2434 L 4662,2684 4912,2684 4912,2434 4662,2434 Z"/>
 <path fill="rgb(131,202,255)" stroke="none" d="M 6790,2400 L 6790,2650 7040,2650 7040,2400 6790,2400 Z"/>
 <path fill="none" stroke="rgb(131,202,255)" stroke-linejoin="round" d="M 6790,2400 L 6790,2650 7040,2650 7040,2400 6790,2400 Z"/>
 <path fill="rgb(131,202,255)" stroke="none" d="M 7972,2417 L 7972,2667 8222,2667 8222,2417 7972,2417 Z"/>
 <path fill="none" stroke="rgb(131,202,255)" stroke-linejoin="round" d="M 7972,2417 L 7972,2667 8222,2667 8222,2417 7972,2417 Z"/>
 <path fill="rgb(131,202,255)" stroke="none" d="M 11992,2780 L 11992,3030 12242,3030 12242,2780 11992,2780 Z"/>
 <path fill="none" stroke="rgb(131,202,255)" stroke-linejoin="round" d="M 11992,2780 L 11992,3030 12242,3030 12242,2780 11992,2780 Z"/>
 <path fill="rgb(131,202,255)" stroke="none" d="M 12229,2452 L 12229,2702 12479,2702 12479,2452 12229,2452 Z"/>
 <path fill="none" stroke="rgb(131,202,255)" stroke-linejoin="round" d="M 12229,2452 L 12229,2702 12479,2702 12479,2452 12229,2452 Z"/>
 <path fill="rgb(131,202,255)" stroke="none" d="M 12702,2694 L 12702,2944 12952,2944 12952,2694 12702,2694 Z"/>
 <path fill="none" stroke="rgb(131,202,255)" stroke-linejoin="round" d="M 12702,2694 L 12702,2944 12952,2944 12952,2694 12702,2694 Z"/>
 <path fill="rgb(131,202,255)" stroke="none" d="M 15302,2763 L 15302,3013 15552,3013 15552,2763 15302,2763 Z"/>
 <path fill="none" stroke="rgb(131,202,255)" stroke-linejoin="round" d="M 15302,2763 L 15302,3013 15552,3013 15552,2763 15302,2763 Z"/>
 <path fill="rgb(131,202,255)" stroke="none" d="M 23342,2659 L 23342,2909 23592,2909 23592,2659 23342,2659 Z"/>
 <path fill="none" stroke="rgb(131,202,255)" stroke-linejoin="round" d="M 23342,2659 L 23342,2909 23592,2909 23592,2659 23342,2659 Z"/>
 <path fill="rgb(131,202,255)" stroke="none" d="M 25471,1917 L 25471,2167 25721,2167 25721,1917 25471,1917 Z"/>
 <path fill="none" stroke="rgb(131,202,255)" stroke-linejoin="round" d="M 25471,1917 L 25471,2167 25721,2167 25721,1917 25471,1917 Z"/>
 <path fill="none" stroke="rgb(0,0,0)" stroke-linejoin="round" d="M 2658,3139 L 2658,2387 2658,1634"/>
 <path fill="none" stroke="rgb(0,0,0)" stroke-linejoin="round" d="M 2758,3139 L 2558,3139"/>
 <path fill="none" stroke="rgb(0,0,0)" stroke-linejoin="round" d="M 2558,1634 L 2758,1634"/>
 <path fill="none" stroke="rgb(0,0,0)" stroke-linejoin="round" d="M 4787,2966 L 4787,2559 4787,2153"/>
 <path fill="none" stroke="rgb(0,0,0)" stroke-linejoin="round" d="M 4887,2966 L 4687,2966"/>
 <path fill="none" stroke="rgb(0,0,0)" stroke-linejoin="round" d="M 4687,2153 L 4887,2153"/>
 <path fill="none" stroke="rgb(0,0,0)" stroke-linejoin="round" d="M 6915,2888 L 6915,2525 6915,2162"/>
 <path fill="none" stroke="rgb(0,0,0)" stroke-linejoin="round" d="M 7015,2888 L 6815,2888"/>
 <path fill="none" stroke="rgb(0,0,0)" stroke-linejoin="round" d="M 6815,2162 L 7015,2162"/>
 <path fill="none" stroke="rgb(0,0,0)" stroke-linejoin="round" d="M 8097,3138 L 8097,2542 8097,1946"/>
 <path fill="none" stroke="rgb(0,0,0)" stroke-linejoin="round" d="M 8197,3138 L 7997,3138"/>
 <path fill="none" stroke="rgb(0,0,0)" stroke-linejoin="round" d="M 7997,1946 L 8197,1946"/>
 <path fill="none" stroke="rgb(0,0,0)" stroke-linejoin="round" d="M 12117,3819 L 12117,2905 12117,1991"/>
 <path fill="none" stroke="rgb(0,0,0)" stroke-linejoin="round" d="M 12217,3819 L 12017,3819"/>
 <path fill="none" stroke="rgb(0,0,0)" stroke-linejoin="round" d="M 12017,1991 L 12217,1991"/>
 <path fill="none" stroke="rgb(0,0,0)" stroke-linejoin="round" d="M 12354,3672 L 12354,2577 12354,1481"/>
 <path fill="none" stroke="rgb(0,0,0)" stroke-linejoin="round" d="M 12454,3672 L 12254,3672"/>
 <path fill="none" stroke="rgb(0,0,0)" stroke-linejoin="round" d="M 12254,1481 L 12454,1481"/>
 <path fill="none" stroke="rgb(0,0,0)" stroke-linejoin="round" d="M 12827,3404 L 12827,2819 12827,2234"/>
 <path fill="none" stroke="rgb(0,0,0)" stroke-linejoin="round" d="M 12927,3404 L 12727,3404"/>
 <path fill="none" stroke="rgb(0,0,0)" stroke-linejoin="round" d="M 12727,2234 L 12927,2234"/>
 <path fill="none" stroke="rgb(0,0,0)" stroke-linejoin="round" d="M 15427,3373 L 15427,2888 15427,2402"/>
 <path fill="none" stroke="rgb(0,0,0)" stroke-linejoin="round" d="M 15527,3373 L 15327,3373"/>
 <path fill="none" stroke="rgb(0,0,0)" stroke-linejoin="round" d="M 15327,2402 L 15527,2402"/>
 <path fill="none" stroke="rgb(0,0,0)" stroke-linejoin="round" d="M 23467,3240 L 23467,2784 23467,2328"/>
 <path fill="none" stroke="rgb(0,0,0)" stroke-linejoin="round" d="M 23567,3240 L 23367,3240"/>
 <path fill="none" stroke="rgb(0,0,0)" stroke-linejoin="round" d="M 23367,2328 L 23567,2328"/>
 <path fill="none" stroke="rgb(0,0,0)" stroke-linejoin="round" d="M 25596,2454 L 25596,2042 25596,1629"/>
 <path fill="none" stroke="rgb(0,0,0)" stroke-linejoin="round" d="M 25696,2454 L 25496,2454"/>
 <path fill="none" stroke="rgb(0,0,0)" stroke-linejoin="round" d="M 25496,1629 L 25696,1629"/>
 <text class="TextShape"><tspan class="TextParagraph" font-family="Liberation Sans, sans-serif" font-size="353px" font-weight="400"><tspan class="TextPosition" x="1157" y="14746"><tspan fill="rgb(0,0,0)" stroke="none">405000</tspan></tspan></tspan></text>
 <text class="TextShape"><tspan class="TextParagraph" font-family="Liberation Sans, sans-serif" font-size="353px" font-weight="400"><tspan class="TextPosition" x="5886" y="14746"><tspan fill="rgb(0,0,0)" stroke="none">415000</tspan></tspan></tspan></text>
 <text class="TextShape"><tspan class="TextParagraph" font-family="Liberation Sans, sans-serif" font-size="353px" font-weight="400"><tspan class="TextPosition" x="10616" y="14746"><tspan fill="rgb(0,0,0)" stroke="none">425000</tspan></tspan></tspan></text>
 <text class="TextShape"><tspan class="TextParagraph" font-family="Liberation Sans, sans-serif" font-size="353px" font-weight="400"><tspan class="TextPosition" x="15345" y="14746"><tspan fill="rgb(0,0,0)" stroke="none">435000</tspan></tspan></tspan></text>
 <text class="TextShape"><tspan class="TextParagraph" font-family="Liberation Sans, sans-serif" font-size="353px" font-weight="400"><tspan class="TextPosition" x="20075" y="14746"><tspan fill="rgb(0,0,0)" stroke="none">445000</tspan></tspan></tspan></text>
 <text class="TextShape"><tspan class="TextParagraph" font-family="Liberation Sans, sans-serif" font-size="353px" font-weight="400"><tspan class="TextPosition" x="24804" y="14746"><tspan fill="rgb(0,0,0)" stroke="none">455000</tspan></tspan></tspan></text>
 <text class="TextShape"><tspan class="TextParagraph" font-family="Liberation Sans, sans-serif" font-size="353px" font-weight="400"><tspan class="TextPosition" x="616" y="14299"><tspan fill="rgb(0,0,0)" stroke="none">0.905</tspan></tspan></tspan></text>
 <text class="TextShape"><tspan class="TextParagraph" font-family="Liberation Sans, sans-serif" font-size="353px" font-weight="400"><tspan class="TextPosition" x="616" y="12344"><tspan fill="rgb(0,0,0)" stroke="none">0.915</tspan></tspan></tspan></text>
 <text class="TextShape"><tspan class="TextParagraph" font-family="Liberation Sans, sans-serif" font-size="353px" font-weight="400"><tspan class="TextPosition" x="616" y="10390"><tspan fill="rgb(0,0,0)" stroke="none">0.925</tspan></tspan></tspan></text>
 <text class="TextShape"><tspan class="TextParagraph" font-family="Liberation Sans, sans-serif" font-size="353px" font-weight="400"><tspan class="TextPosition" x="616" y="8436"><tspan fill="rgb(0,0,0)" stroke="none">0.935</tspan></tspan></tspan></text>
 <text class="TextShape"><tspan class="TextParagraph" font-family="Liberation Sans, sans-serif" font-size="353px" font-weight="400"><tspan class="TextPosition" x="616" y="6482"><tspan fill="rgb(0,0,0)" stroke="none">0.945</tspan></tspan></tspan></text>
 <text class="TextShape"><tspan class="TextParagraph" font-family="Liberation Sans, sans-serif" font-size="353px" font-weight="400"><tspan class="TextPosition" x="616" y="4528"><tspan fill="rgb(0,0,0)" stroke="none">0.955</tspan></tspan></tspan></text>
 <text class="TextShape"><tspan class="TextParagraph" font-family="Liberation Sans, sans-serif" font-size="353px" font-weight="400"><tspan class="TextPosition" x="616" y="2574"><tspan fill="rgb(0,0,0)" stroke="none">0.965</tspan></tspan></tspan></text>
 <text class="TextShape"><tspan class="TextParagraph" font-family="Liberation Sans, sans-serif" font-size="353px" font-weight="400"><tspan class="TextPosition" x="616" y="620"><tspan fill="rgb(0,0,0)" stroke="none">0.975</tspan></tspan></tspan></text>
 <path fill="none" stroke="rgb(131,202,255)" stroke-width="80" stroke-linejoin="round" d="M 26640,7314 L 27440,7314"/>
 <path fill="rgb(131,202,255)" stroke="none" d="M 26934,7209 L 26934,7420 27145,7420 27145,7209 26934,7209 Z"/>
 <path fill="none" stroke="rgb(131,202,255)" stroke-linejoin="round" d="M 26934,7209 L 26934,7420 27145,7420 27145,7209 26934,7209 Z"/>
 <path fill="none" stroke="rgb(204,255,153)" stroke-width="80" stroke-linejoin="round" d="M 26640,7811 L 27440,7811"/>
 <path fill="rgb(204,255,153)" stroke="none" d="M 26934,7811 L 27040,7917 27145,7811 27040,7706 26934,7811 Z"/>
 <path fill="none" stroke="rgb(204,255,153)" stroke-linejoin="round" d="M 26934,7811 L 27040,7917 27145,7811 27040,7706 26934,7811 Z"/>
 <text class="TextShape"><tspan class="TextParagraph" font-family="Liberation Sans, sans-serif" font-size="353px" font-weight="400"><tspan class="TextPosition" x="27540" y="7434"><tspan fill="rgb(0,0,0)" stroke="none">mean_train_score</tspan></tspan></tspan></text>
 <text class="TextShape"><tspan class="TextParagraph" font-family="Liberation Sans, sans-serif" font-size="353px" font-weight="400"><tspan class="TextPosition" x="27540" y="7931"><tspan fill="rgb(0,0,0)" stroke="none">mean_test_score</tspan></tspan></tspan></text>
</svg>