<?xml version="1.0" encoding="UTF-8"?>
<!DOCTYPE svg PUBLIC "-//W3C//DTD SVG 1.1//EN" "http://www.w3.org/Graphics/SVG/1.1/DTD/svg11.dtd">
<svg width="339mm" height="147mm" viewBox="0 0 33900 14700" version="1.1" xmlns="http://www.w3.org/2000/svg" stroke-width="28.222" stroke-linejoin="round" xml:space="preserve">
 <path fill="rgb(255,255,255)" stroke="none" d="M 16948,14651 L -4,14651 -4,0 33899,0 33899,14651 16948,14651 Z"/>
 <path fill="none" stroke="rgb(179,179,179)" stroke-linejoin="round" d="M 15369,13711 L 1586,13711 1586,492 29152,492 29152,13711 15369,13711 Z"/>
 <path fill="none" stroke="rgb(179,179,179)" stroke-linejoin="round" d="M 29152,13710 L 1586,13710"/>
 <path fill="none" stroke="rgb(179,179,179)" stroke-linejoin="round" d="M 29152,11821 L 1586,11821"/>
 <path fill="none" stroke="rgb(179,179,179)" stroke-linejoin="round" d="M 29152,9932 L 1586,9932"/>
 <path fill="none" stroke="rgb(179,179,179)" stroke-linejoin="round" d="M 29152,8044 L 1586,8044"/>
 <path fill="none" stroke="rgb(179,179,179)" stroke-linejoin="round" d="M 29152,6156 L 1586,6156"/>
 <path fill="none" stroke="rgb(179,179,179)" stroke-linejoin="round" d="M 29152,4268 L 1586,4268"/>
 <path fill="none" stroke="rgb(179,179,179)" stroke-linejoin="round" d="M 29152,2379 L 1586,2379"/>
 <path fill="none" stroke="rgb(179,179,179)" stroke-linejoin="round" d="M 29152,491 L 1586,491"/>
 <path fill="none" stroke="rgb(179,179,179)" stroke-linejoin="round" d="M 1586,13860 L 1586,13710"/>
 <path fill="none" stroke="rgb(179,179,179)" stroke-linejoin="round" d="M 1586,13860 L 1586,13710"/>
 <path fill="none" stroke="rgb(179,179,179)" stroke-linejoin="round" d="M 6598,13860 L 6598,13710"/>
 <path fill="none" stroke="rgb(179,179,179)" stroke-linejoin="round" d="M 6598,13860 L 6598,13710"/>
 <path fill="none" stroke="rgb(179,179,179)" stroke-linejoin="round" d="M 11610,13860 L 11610,13710"/>
 <path fill="none" stroke="rgb(179,179,179)" stroke-linejoin="round" d="M 11610,13860 L 11610,13710"/>
 <path fill="none" stroke="rgb(179,179,179)" stroke-linejoin="round" d="M 16622,13860 L 16622,13710"/>
 <path fill="none" stroke="rgb(179,179,179)" stroke-linejoin="round" d="M 16622,13860 L 16622,13710"/>
 <path fill="none" stroke="rgb(179,179,179)" stroke-linejoin="round" d="M 21633,13860 L 21633,13710"/>
 <path fill="none" stroke="rgb(179,179,179)" stroke-linejoin="round" d="M 21633,13860 L 21633,13710"/>
 <path fill="none" stroke="rgb(179,179,179)" stroke-linejoin="round" d="M 26645,13860 L 26645,13710"/>
 <path fill="none" stroke="rgb(179,179,179)" stroke-linejoin="round" d="M 26645,13860 L 26645,13710"/>
 <path fill="none" stroke="rgb(179,179,179)" stroke-linejoin="round" d="M 1586,13710 L 29152,13710"/>
 <path fill="none" stroke="rgb(179,179,179)" stroke-linejoin="round" d="M 1436,13710 L 1586,13710"/>
 <path fill="none" stroke="rgb(179,179,179)" stroke-linejoin="round" d="M 1436,13710 L 1586,13710"/>
 <path fill="none" stroke="rgb(179,179,179)" stroke-linejoin="round" d="M 1436,11821 L 1586,11821"/>
 <path fill="none" stroke="rgb(179,179,179)" stroke-linejoin="round" d="M 1436,11821 L 1586,11821"/>
 <path fill="none" stroke="rgb(179,179,179)" stroke-linejoin="round" d="M 1436,9932 L 1586,9932"/>
 <path fill="none" stroke="rgb(179,179,179)" stroke-linejoin="round" d="M 1436,9932 L 1586,9932"/>
 <path fill="none" stroke="rgb(179,179,179)" stroke-linejoin="round" d="M 1436,8044 L 1586,8044"/>
 <path fill="none" stroke="rgb(179,179,179)" stroke-linejoin="round" d="M 1436,8044 L 1586,8044"/>
 <path fill="none" stroke="rgb(179,179,179)" stroke-linejoin="round" d="M 1436,6156 L 1586,6156"/>
 <path fill="none" stroke="rgb(179,179,179)" stroke-linejoin="round" d="M 1436,6156 L 1586,6156"/>
 <path fill="none" stroke="rgb(179,179,179)" stroke-linejoin="round" d="M 1436,4268 L 1586,4268"/>
 <path fill="none" stroke="rgb(179,179,179)" stroke-linejoin="round" d="M 1436,4268 L 1586,4268"/>
 <path fill="none" stroke="rgb(179,179,179)" stroke-linejoin="round" d="M 1436,2379 L 1586,2379"/>
 <path fill="none" stroke="rgb(179,179,179)" stroke-linejoin="round" d="M 1436,2379 L 1586,2379"/>
 <path fill="none" stroke="rgb(179,179,179)" stroke-linejoin="round" d="M 1436,491 L 1586,491"/>
 <path fill="none" stroke="rgb(179,179,179)" stroke-linejoin="round" d="M 1436,491 L 1586,491"/>
 <path fill="none" stroke="rgb(179,179,179)" stroke-linejoin="round" d="M 1586,13710 L 1586,491"/>
 <path fill="none" stroke="rgb(204,255,153)" stroke-width="80" stroke-linejoin="round" d="M 3089,8516 L 3691,8282 5194,8516 5345,8048 8151,8633 8502,8516 9054,8165 9455,8516 9906,8399 10808,8516 12161,8633 12713,8399 13464,8633 13514,8048 14066,8165 14868,8633 15269,8399 16121,8399 20029,8399 21683,8399 21884,8282 22134,8633 26996,8633"/>
 <path fill="rgb(204,255,153)" stroke="none" d="M 2964,8516 L 3089,8641 3214,8516 3089,8391 2964,8516 Z"/>
 <path fill="none" stroke="rgb(204,255,153)" stroke-linejoin="round" d="M 2964,8516 L 3089,8641 3214,8516 3089,8391 2964,8516 Z"/>
 <path fill="rgb(204,255,153)" stroke="none" d="M 3566,8282 L 3691,8407 3816,8282 3691,8157 3566,8282 Z"/>
 <path fill="none" stroke="rgb(204,255,153)" stroke-linejoin="round" d="M 3566,8282 L 3691,8407 3816,8282 3691,8157 3566,8282 Z"/>
 <path fill="rgb(204,255,153)" stroke="none" d="M 5069,8516 L 5194,8641 5319,8516 5194,8391 5069,8516 Z"/>
 <path fill="none" stroke="rgb(204,255,153)" stroke-linejoin="round" d="M 5069,8516 L 5194,8641 5319,8516 5194,8391 5069,8516 Z"/>
 <path fill="rgb(204,255,153)" stroke="none" d="M 5220,8048 L 5345,8173 5470,8048 5345,7923 5220,8048 Z"/>
 <path fill="none" stroke="rgb(204,255,153)" stroke-linejoin="round" d="M 5220,8048 L 5345,8173 5470,8048 5345,7923 5220,8048 Z"/>
 <path fill="rgb(204,255,153)" stroke="none" d="M 8026,8633 L 8151,8758 8276,8633 8151,8508 8026,8633 Z"/>
 <path fill="none" stroke="rgb(204,255,153)" stroke-linejoin="round" d="M 8026,8633 L 8151,8758 8276,8633 8151,8508 8026,8633 Z"/>
 <path fill="rgb(204,255,153)" stroke="none" d="M 8377,8516 L 8502,8641 8627,8516 8502,8391 8377,8516 Z"/>
 <path fill="none" stroke="rgb(204,255,153)" stroke-linejoin="round" d="M 8377,8516 L 8502,8641 8627,8516 8502,8391 8377,8516 Z"/>
 <path fill="rgb(204,255,153)" stroke="none" d="M 8929,8165 L 9054,8290 9179,8165 9054,8040 8929,8165 Z"/>
 <path fill="none" stroke="rgb(204,255,153)" stroke-linejoin="round" d="M 8929,8165 L 9054,8290 9179,8165 9054,8040 8929,8165 Z"/>
 <path fill="rgb(204,255,153)" stroke="none" d="M 9330,8516 L 9455,8641 9580,8516 9455,8391 9330,8516 Z"/>
 <path fill="none" stroke="rgb(204,255,153)" stroke-linejoin="round" d="M 9330,8516 L 9455,8641 9580,8516 9455,8391 9330,8516 Z"/>
 <path fill="rgb(204,255,153)" stroke="none" d="M 9781,8399 L 9906,8524 10031,8399 9906,8274 9781,8399 Z"/>
 <path fill="none" stroke="rgb(204,255,153)" stroke-linejoin="round" d="M 9781,8399 L 9906,8524 10031,8399 9906,8274 9781,8399 Z"/>
 <path fill="rgb(204,255,153)" stroke="none" d="M 10683,8516 L 10808,8641 10933,8516 10808,8391 10683,8516 Z"/>
 <path fill="none" stroke="rgb(204,255,153)" stroke-linejoin="round" d="M 10683,8516 L 10808,8641 10933,8516 10808,8391 10683,8516 Z"/>
 <path fill="rgb(204,255,153)" stroke="none" d="M 12036,8633 L 12161,8758 12286,8633 12161,8508 12036,8633 Z"/>
 <path fill="none" stroke="rgb(204,255,153)" stroke-linejoin="round" d="M 12036,8633 L 12161,8758 12286,8633 12161,8508 12036,8633 Z"/>
 <path fill="rgb(204,255,153)" stroke="none" d="M 12588,8399 L 12713,8524 12838,8399 12713,8274 12588,8399 Z"/>
 <path fill="none" stroke="rgb(204,255,153)" stroke-linejoin="round" d="M 12588,8399 L 12713,8524 12838,8399 12713,8274 12588,8399 Z"/>
 <path fill="rgb(204,255,153)" stroke="none" d="M 13339,8633 L 13464,8758 13589,8633 13464,8508 13339,8633 Z"/>
 <path fill="none" stroke="rgb(204,255,153)" stroke-linejoin="round" d="M 13339,8633 L 13464,8758 13589,8633 13464,8508 13339,8633 Z"/>
 <path fill="rgb(204,255,153)" stroke="none" d="M 13389,8048 L 13514,8173 13639,8048 13514,7923 13389,8048 Z"/>
 <path fill="none" stroke="rgb(204,255,153)" stroke-linejoin="round" d="M 13389,8048 L 13514,8173 13639,8048 13514,7923 13389,8048 Z"/>
 <path fill="rgb(204,255,153)" stroke="none" d="M 13941,8165 L 14066,8290 14191,8165 14066,8040 13941,8165 Z"/>
 <path fill="none" stroke="rgb(204,255,153)" stroke-linejoin="round" d="M 13941,8165 L 14066,8290 14191,8165 14066,8040 13941,8165 Z"/>
 <path fill="rgb(204,255,153)" stroke="none" d="M 14743,8633 L 14868,8758 14993,8633 14868,8508 14743,8633 Z"/>
 <path fill="none" stroke="rgb(204,255,153)" stroke-linejoin="round" d="M 14743,8633 L 14868,8758 14993,8633 14868,8508 14743,8633 Z"/>
 <path fill="rgb(204,255,153)" stroke="none" d="M 15144,8399 L 15269,8524 15394,8399 15269,8274 15144,8399 Z"/>
 <path fill="none" stroke="rgb(204,255,153)" stroke-linejoin="round" d="M 15144,8399 L 15269,8524 15394,8399 15269,8274 15144,8399 Z"/>
 <path fill="rgb(204,255,153)" stroke="none" d="M 15996,8399 L 16121,8524 16246,8399 16121,8274 15996,8399 Z"/>
 <path fill="none" stroke="rgb(204,255,153)" stroke-linejoin="round" d="M 15996,8399 L 16121,8524 16246,8399 16121,8274 15996,8399 Z"/>
 <path fill="rgb(204,255,153)" stroke="none" d="M 19904,8399 L 20029,8524 20154,8399 20029,8274 19904,8399 Z"/>
 <path fill="none" stroke="rgb(204,255,153)" stroke-linejoin="round" d="M 19904,8399 L 20029,8524 20154,8399 20029,8274 19904,8399 Z"/>
 <path fill="rgb(204,255,153)" stroke="none" d="M 21558,8399 L 21683,8524 21808,8399 21683,8274 21558,8399 Z"/>
 <path fill="none" stroke="rgb(204,255,153)" stroke-linejoin="round" d="M 21558,8399 L 21683,8524 21808,8399 21683,8274 21558,8399 Z"/>
 <path fill="rgb(204,255,153)" stroke="none" d="M 21759,8282 L 21884,8407 22009,8282 21884,8157 21759,8282 Z"/>
 <path fill="none" stroke="rgb(204,255,153)" stroke-linejoin="round" d="M 21759,8282 L 21884,8407 22009,8282 21884,8157 21759,8282 Z"/>
 <path fill="rgb(204,255,153)" stroke="none" d="M 22009,8633 L 22134,8758 22259,8633 22134,8508 22009,8633 Z"/>
 <path fill="none" stroke="rgb(204,255,153)" stroke-linejoin="round" d="M 22009,8633 L 22134,8758 22259,8633 22134,8508 22009,8633 Z"/>
 <path fill="rgb(204,255,153)" stroke="none" d="M 26871,8633 L 26996,8758 27121,8633 26996,8508 26871,8633 Z"/>
 <path fill="none" stroke="rgb(204,255,153)" stroke-linejoin="round" d="M 26871,8633 L 26996,8758 27121,8633 26996,8508 26871,8633 Z"/>
 <path fill="none" stroke="rgb(0,0,0)" stroke-linejoin="round" d="M 3089,10954 L 3089,8516 3089,6079"/>
 <path fill="none" stroke="rgb(0,0,0)" stroke-linejoin="round" d="M 3189,10954 L 2989,10954"/>
 <path fill="none" stroke="rgb(0,0,0)" stroke-linejoin="round" d="M 2989,6079 L 3189,6079"/>
 <path fill="none" stroke="rgb(0,0,0)" stroke-linejoin="round" d="M 3691,11127 L 3691,8282 3691,5438"/>
 <path fill="none" stroke="rgb(0,0,0)" stroke-linejoin="round" d="M 3791,11127 L 3591,11127"/>
 <path fill="none" stroke="rgb(0,0,0)" stroke-linejoin="round" d="M 3591,5438 L 3791,5438"/>
 <path fill="none" stroke="rgb(0,0,0)" stroke-linejoin="round" d="M 5194,11039 L 5194,8516 5194,5994"/>
 <path fill="none" stroke="rgb(0,0,0)" stroke-linejoin="round" d="M 5294,11039 L 5094,11039"/>
 <path fill="none" stroke="rgb(0,0,0)" stroke-linejoin="round" d="M 5094,5994 L 5294,5994"/>
 <path fill="none" stroke="rgb(0,0,0)" stroke-linejoin="round" d="M 5345,11264 L 5345,8048 5345,4834"/>
 <path fill="none" stroke="rgb(0,0,0)" stroke-linejoin="round" d="M 5445,11264 L 5245,11264"/>
 <path fill="none" stroke="rgb(0,0,0)" stroke-linejoin="round" d="M 5245,4834 L 5445,4834"/>
 <path fill="none" stroke="rgb(0,0,0)" stroke-linejoin="round" d="M 8151,12300 L 8151,8633 8151,4967"/>
 <path fill="none" stroke="rgb(0,0,0)" stroke-linejoin="round" d="M 8251,12300 L 8051,12300"/>
 <path fill="none" stroke="rgb(0,0,0)" stroke-linejoin="round" d="M 8051,4967 L 8251,4967"/>
 <path fill="none" stroke="rgb(0,0,0)" stroke-linejoin="round" d="M 8502,9963 L 8502,8516 8502,7070"/>
 <path fill="none" stroke="rgb(0,0,0)" stroke-linejoin="round" d="M 8602,9963 L 8402,9963"/>
 <path fill="none" stroke="rgb(0,0,0)" stroke-linejoin="round" d="M 8402,7070 L 8602,7070"/>
 <path fill="none" stroke="rgb(0,0,0)" stroke-linejoin="round" d="M 9054,11208 L 9054,8165 9054,5124"/>
 <path fill="none" stroke="rgb(0,0,0)" stroke-linejoin="round" d="M 9154,11208 L 8954,11208"/>
 <path fill="none" stroke="rgb(0,0,0)" stroke-linejoin="round" d="M 8954,5124 L 9154,5124"/>
 <path fill="none" stroke="rgb(0,0,0)" stroke-linejoin="round" d="M 9455,11563 L 9455,8516 9455,5470"/>
 <path fill="none" stroke="rgb(0,0,0)" stroke-linejoin="round" d="M 9555,11563 L 9355,11563"/>
 <path fill="none" stroke="rgb(0,0,0)" stroke-linejoin="round" d="M 9355,5470 L 9555,5470"/>
 <path fill="none" stroke="rgb(0,0,0)" stroke-linejoin="round" d="M 9906,10818 L 9906,8399 9906,5981"/>
 <path fill="none" stroke="rgb(0,0,0)" stroke-linejoin="round" d="M 10006,10818 L 9806,10818"/>
 <path fill="none" stroke="rgb(0,0,0)" stroke-linejoin="round" d="M 9806,5981 L 10006,5981"/>
 <path fill="none" stroke="rgb(0,0,0)" stroke-linejoin="round" d="M 10808,11919 L 10808,8516 10808,5114"/>
 <path fill="none" stroke="rgb(0,0,0)" stroke-linejoin="round" d="M 10908,11919 L 10708,11919"/>
 <path fill="none" stroke="rgb(0,0,0)" stroke-linejoin="round" d="M 10708,5114 L 10908,5114"/>
 <path fill="none" stroke="rgb(0,0,0)" stroke-linejoin="round" d="M 12161,11985 L 12161,8633 12161,5282"/>
 <path fill="none" stroke="rgb(0,0,0)" stroke-linejoin="round" d="M 12261,11985 L 12061,11985"/>
 <path fill="none" stroke="rgb(0,0,0)" stroke-linejoin="round" d="M 12061,5282 L 12261,5282"/>
 <path fill="none" stroke="rgb(0,0,0)" stroke-linejoin="round" d="M 12713,11703 L 12713,8399 12713,5096"/>
 <path fill="none" stroke="rgb(0,0,0)" stroke-linejoin="round" d="M 12813,11703 L 12613,11703"/>
 <path fill="none" stroke="rgb(0,0,0)" stroke-linejoin="round" d="M 12613,5096 L 12813,5096"/>
 <path fill="none" stroke="rgb(0,0,0)" stroke-linejoin="round" d="M 13464,12064 L 13464,8633 13464,5203"/>
 <path fill="none" stroke="rgb(0,0,0)" stroke-linejoin="round" d="M 13564,12064 L 13364,12064"/>
 <path fill="none" stroke="rgb(0,0,0)" stroke-linejoin="round" d="M 13364,5203 L 13564,5203"/>
 <path fill="none" stroke="rgb(0,0,0)" stroke-linejoin="round" d="M 13514,11078 L 13514,8048 13514,5020"/>
 <path fill="none" stroke="rgb(0,0,0)" stroke-linejoin="round" d="M 13614,11078 L 13414,11078"/>
 <path fill="none" stroke="rgb(0,0,0)" stroke-linejoin="round" d="M 13414,5020 L 13614,5020"/>
 <path fill="none" stroke="rgb(0,0,0)" stroke-linejoin="round" d="M 14066,11641 L 14066,8165 14066,4690"/>
 <path fill="none" stroke="rgb(0,0,0)" stroke-linejoin="round" d="M 14166,11641 L 13966,11641"/>
 <path fill="none" stroke="rgb(0,0,0)" stroke-linejoin="round" d="M 13966,4690 L 14166,4690"/>
 <path fill="none" stroke="rgb(0,0,0)" stroke-linejoin="round" d="M 14868,10489 L 14868,8633 14868,6777"/>
 <path fill="none" stroke="rgb(0,0,0)" stroke-linejoin="round" d="M 14968,10489 L 14768,10489"/>
 <path fill="none" stroke="rgb(0,0,0)" stroke-linejoin="round" d="M 14768,6777 L 14968,6777"/>
 <path fill="none" stroke="rgb(0,0,0)" stroke-linejoin="round" d="M 15269,12044 L 15269,8399 15269,4755"/>
 <path fill="none" stroke="rgb(0,0,0)" stroke-linejoin="round" d="M 15369,12044 L 15169,12044"/>
 <path fill="none" stroke="rgb(0,0,0)" stroke-linejoin="round" d="M 15169,4755 L 15369,4755"/>
 <path fill="none" stroke="rgb(0,0,0)" stroke-linejoin="round" d="M 16121,11969 L 16121,8399 16121,4830"/>
 <path fill="none" stroke="rgb(0,0,0)" stroke-linejoin="round" d="M 16221,11969 L 16021,11969"/>
 <path fill="none" stroke="rgb(0,0,0)" stroke-linejoin="round" d="M 16021,4830 L 16221,4830"/>
 <path fill="none" stroke="rgb(0,0,0)" stroke-linejoin="round" d="M 20029,10368 L 20029,8399 20029,6432"/>
 <path fill="none" stroke="rgb(0,0,0)" stroke-linejoin="round" d="M 20129,10368 L 19929,10368"/>
 <path fill="none" stroke="rgb(0,0,0)" stroke-linejoin="round" d="M 19929,6432 L 20129,6432"/>
 <path fill="none" stroke="rgb(0,0,0)" stroke-linejoin="round" d="M 21683,10918 L 21683,8399 21683,5881"/>
 <path fill="none" stroke="rgb(0,0,0)" stroke-linejoin="round" d="M 21783,10918 L 21583,10918"/>
 <path fill="none" stroke="rgb(0,0,0)" stroke-linejoin="round" d="M 21583,5881 L 21783,5881"/>
 <path fill="none" stroke="rgb(0,0,0)" stroke-linejoin="round" d="M 21884,11180 L 21884,8282 21884,5386"/>
 <path fill="none" stroke="rgb(0,0,0)" stroke-linejoin="round" d="M 21984,11180 L 21784,11180"/>
 <path fill="none" stroke="rgb(0,0,0)" stroke-linejoin="round" d="M 21784,5386 L 21984,5386"/>
 <path fill="none" stroke="rgb(0,0,0)" stroke-linejoin="round" d="M 22134,11008 L 22134,8633 22134,6259"/>
 <path fill="none" stroke="rgb(0,0,0)" stroke-linejoin="round" d="M 22234,11008 L 22034,11008"/>
 <path fill="none" stroke="rgb(0,0,0)" stroke-linejoin="round" d="M 22034,6259 L 22234,6259"/>
 <path fill="none" stroke="rgb(0,0,0)" stroke-linejoin="round" d="M 26996,12653 L 26996,8633 26996,4613"/>
 <path fill="none" stroke="rgb(0,0,0)" stroke-linejoin="round" d="M 27096,12653 L 26896,12653"/>
 <path fill="none" stroke="rgb(0,0,0)" stroke-linejoin="round" d="M 26896,4613 L 27096,4613"/>
 <path fill="none" stroke="rgb(131,202,255)" stroke-width="80" stroke-linejoin="round" d="M 3089,4076 L 3691,4660 5194,3638 5345,3287 8151,3433 8502,3083 9054,3784 9455,3141 9906,3024 10808,3200 12161,3316 12713,3082 13464,2937 13514,2761 14066,2907 14868,2411 15269,2352 16121,3112 20029,3141 21683,2644 21884,3024 22134,3784 26996,2878"/>
 <path fill="rgb(131,202,255)" stroke="none" d="M 2964,3951 L 2964,4201 3214,4201 3214,3951 2964,3951 Z"/>
 <path fill="none" stroke="rgb(131,202,255)" stroke-linejoin="round" d="M 2964,3951 L 2964,4201 3214,4201 3214,3951 2964,3951 Z"/>
 <path fill="rgb(131,202,255)" stroke="none" d="M 3566,4535 L 3566,4785 3816,4785 3816,4535 3566,4535 Z"/>
 <path fill="none" stroke="rgb(131,202,255)" stroke-linejoin="round" d="M 3566,4535 L 3566,4785 3816,4785 3816,4535 3566,4535 Z"/>
 <path fill="rgb(131,202,255)" stroke="none" d="M 5069,3513 L 5069,3763 5319,3763 5319,3513 5069,3513 Z"/>
 <path fill="none" stroke="rgb(131,202,255)" stroke-linejoin="round" d="M 5069,3513 L 5069,3763 5319,3763 5319,3513 5069,3513 Z"/>
 <path fill="rgb(131,202,255)" stroke="none" d="M 5220,3162 L 5220,3412 5470,3412 5470,3162 5220,3162 Z"/>
 <path fill="none" stroke="rgb(131,202,255)" stroke-linejoin="round" d="M 5220,3162 L 5220,3412 5470,3412 5470,3162 5220,3162 Z"/>
 <path fill="rgb(131,202,255)" stroke="none" d="M 8026,3308 L 8026,3558 8276,3558 8276,3308 8026,3308 Z"/>
 <path fill="none" stroke="rgb(131,202,255)" stroke-linejoin="round" d="M 8026,3308 L 8026,3558 8276,3558 8276,3308 8026,3308 Z"/>
 <path fill="rgb(131,202,255)" stroke="none" d="M 8377,2958 L 8377,3208 8627,3208 8627,2958 8377,2958 Z"/>
 <path fill="none" stroke="rgb(131,202,255)" stroke-linejoin="round" d="M 8377,2958 L 8377,3208 8627,3208 8627,2958 8377,2958 Z"/>
 <path fill="rgb(131,202,255)" stroke="none" d="M 8929,3659 L 8929,3909 9179,3909 9179,3659 8929,3659 Z"/>
 <path fill="none" stroke="rgb(131,202,255)" stroke-linejoin="round" d="M 8929,3659 L 8929,3909 9179,3909 9179,3659 8929,3659 Z"/>
 <path fill="rgb(131,202,255)" stroke="none" d="M 9330,3016 L 9330,3266 9580,3266 9580,3016 9330,3016 Z"/>
 <path fill="none" stroke="rgb(131,202,255)" stroke-linejoin="round" d="M 9330,3016 L 9330,3266 9580,3266 9580,3016 9330,3016 Z"/>
 <path fill="rgb(131,202,255)" stroke="none" d="M 9781,2899 L 9781,3149 10031,3149 10031,2899 9781,2899 Z"/>
 <path fill="none" stroke="rgb(131,202,255)" stroke-linejoin="round" d="M 9781,2899 L 9781,3149 10031,3149 10031,2899 9781,2899 Z"/>
 <path fill="rgb(131,202,255)" stroke="none" d="M 10683,3075 L 10683,3325 10933,3325 10933,3075 10683,3075 Z"/>
 <path fill="none" stroke="rgb(131,202,255)" stroke-linejoin="round" d="M 10683,3075 L 10683,3325 10933,3325 10933,3075 10683,3075 Z"/>
 <path fill="rgb(131,202,255)" stroke="none" d="M 12036,3191 L 12036,3441 12286,3441 12286,3191 12036,3191 Z"/>
 <path fill="none" stroke="rgb(131,202,255)" stroke-linejoin="round" d="M 12036,3191 L 12036,3441 12286,3441 12286,3191 12036,3191 Z"/>
 <path fill="rgb(131,202,255)" stroke="none" d="M 12588,2957 L 12588,3207 12838,3207 12838,2957 12588,2957 Z"/>
 <path fill="none" stroke="rgb(131,202,255)" stroke-linejoin="round" d="M 12588,2957 L 12588,3207 12838,3207 12838,2957 12588,2957 Z"/>
 <path fill="rgb(131,202,255)" stroke="none" d="M 13339,2812 L 13339,3062 13589,3062 13589,2812 13339,2812 Z"/>
 <path fill="none" stroke="rgb(131,202,255)" stroke-linejoin="round" d="M 13339,2812 L 13339,3062 13589,3062 13589,2812 13339,2812 Z"/>
 <path fill="rgb(131,202,255)" stroke="none" d="M 13389,2636 L 13389,2886 13639,2886 13639,2636 13389,2636 Z"/>
 <path fill="none" stroke="rgb(131,202,255)" stroke-linejoin="round" d="M 13389,2636 L 13389,2886 13639,2886 13639,2636 13389,2636 Z"/>
 <path fill="rgb(131,202,255)" stroke="none" d="M 13941,2782 L 13941,3032 14191,3032 14191,2782 13941,2782 Z"/>
 <path fill="none" stroke="rgb(131,202,255)" stroke-linejoin="round" d="M 13941,2782 L 13941,3032 14191,3032 14191,2782 13941,2782 Z"/>
 <path fill="rgb(131,202,255)" stroke="none" d="M 14743,2286 L 14743,2536 14993,2536 14993,2286 14743,2286 Z"/>
 <path fill="none" stroke="rgb(131,202,255)" stroke-linejoin="round" d="M 14743,2286 L 14743,2536 14993,2536 14993,2286 14743,2286 Z"/>
 <path fill="rgb(131,202,255)" stroke="none" d="M 15144,2227 L 15144,2477 15394,2477 15394,2227 15144,2227 Z"/>
 <path fill="none" stroke="rgb(131,202,255)" stroke-linejoin="round" d="M 15144,2227 L 15144,2477 15394,2477 15394,2227 15144,2227 Z"/>
 <path fill="rgb(131,202,255)" stroke="none" d="M 15996,2987 L 15996,3237 16246,3237 16246,2987 15996,2987 Z"/>
 <path fill="none" stroke="rgb(131,202,255)" stroke-linejoin="round" d="M 15996,2987 L 15996,3237 16246,3237 16246,2987 15996,2987 Z"/>
 <path fill="rgb(131,202,255)" stroke="none" d="M 19904,3016 L 19904,3266 20154,3266 20154,3016 19904,3016 Z"/>
 <path fill="none" stroke="rgb(131,202,255)" stroke-linejoin="round" d="M 19904,3016 L 19904,3266 20154,3266 20154,3016 19904,3016 Z"/>
 <path fill="rgb(131,202,255)" stroke="none" d="M 21558,2519 L 21558,2769 21808,2769 21808,2519 21558,2519 Z"/>
 <path fill="none" stroke="rgb(131,202,255)" stroke-linejoin="round" d="M 21558,2519 L 21558,2769 21808,2769 21808,2519 21558,2519 Z"/>
 <path fill="rgb(131,202,255)" stroke="none" d="M 21759,2899 L 21759,3149 22009,3149 22009,2899 21759,2899 Z"/>
 <path fill="none" stroke="rgb(131,202,255)" stroke-linejoin="round" d="M 21759,2899 L 21759,3149 22009,3149 22009,2899 21759,2899 Z"/>
 <path fill="rgb(131,202,255)" stroke="none" d="M 22009,3659 L 22009,3909 22259,3909 22259,3659 22009,3659 Z"/>
 <path fill="none" stroke="rgb(131,202,255)" stroke-linejoin="round" d="M 22009,3659 L 22009,3909 22259,3909 22259,3659 22009,3659 Z"/>
 <path fill="rgb(131,202,255)" stroke="none" d="M 26871,2753 L 26871,3003 27121,3003 27121,2753 26871,2753 Z"/>
 <path fill="none" stroke="rgb(131,202,255)" stroke-linejoin="round" d="M 26871,2753 L 26871,3003 27121,3003 27121,2753 26871,2753 Z"/>
 <path fill="none" stroke="rgb(0,0,0)" stroke-linejoin="round" d="M 3089,4608 L 3089,4076 3089,3544"/>
 <path fill="none" stroke="rgb(0,0,0)" stroke-linejoin="round" d="M 3189,4608 L 2989,4608"/>
 <path fill="none" stroke="rgb(0,0,0)" stroke-linejoin="round" d="M 2989,3544 L 3189,3544"/>
 <path fill="none" stroke="rgb(0,0,0)" stroke-linejoin="round" d="M 3691,5120 L 3691,4660 3691,4201"/>
 <path fill="none" stroke="rgb(0,0,0)" stroke-linejoin="round" d="M 3791,5120 L 3591,5120"/>
 <path fill="none" stroke="rgb(0,0,0)" stroke-linejoin="round" d="M 3591,4201 L 3791,4201"/>
 <path fill="none" stroke="rgb(0,0,0)" stroke-linejoin="round" d="M 5194,4148 L 5194,3638 5194,3128"/>
 <path fill="none" stroke="rgb(0,0,0)" stroke-linejoin="round" d="M 5294,4148 L 5094,4148"/>
 <path fill="none" stroke="rgb(0,0,0)" stroke-linejoin="round" d="M 5094,3128 L 5294,3128"/>
 <path fill="none" stroke="rgb(0,0,0)" stroke-linejoin="round" d="M 5345,3780 L 5345,3287 5345,2794"/>
 <path fill="none" stroke="rgb(0,0,0)" stroke-linejoin="round" d="M 5445,3780 L 5245,3780"/>
 <path fill="none" stroke="rgb(0,0,0)" stroke-linejoin="round" d="M 5245,2794 L 5445,2794"/>
 <path fill="none" stroke="rgb(0,0,0)" stroke-linejoin="round" d="M 8151,3992 L 8151,3433 8151,2874"/>
 <path fill="none" stroke="rgb(0,0,0)" stroke-linejoin="round" d="M 8251,3992 L 8051,3992"/>
 <path fill="none" stroke="rgb(0,0,0)" stroke-linejoin="round" d="M 8051,2874 L 8251,2874"/>
 <path fill="none" stroke="rgb(0,0,0)" stroke-linejoin="round" d="M 8502,3852 L 8502,3083 8502,2314"/>
 <path fill="none" stroke="rgb(0,0,0)" stroke-linejoin="round" d="M 8602,3852 L 8402,3852"/>
 <path fill="none" stroke="rgb(0,0,0)" stroke-linejoin="round" d="M 8402,2314 L 8602,2314"/>
 <path fill="none" stroke="rgb(0,0,0)" stroke-linejoin="round" d="M 9054,4700 L 9054,3784 9054,2868"/>
 <path fill="none" stroke="rgb(0,0,0)" stroke-linejoin="round" d="M 9154,4700 L 8954,4700"/>
 <path fill="none" stroke="rgb(0,0,0)" stroke-linejoin="round" d="M 8954,2868 L 9154,2868"/>
 <path fill="none" stroke="rgb(0,0,0)" stroke-linejoin="round" d="M 9455,3771 L 9455,3141 9455,2512"/>
 <path fill="none" stroke="rgb(0,0,0)" stroke-linejoin="round" d="M 9555,3771 L 9355,3771"/>
 <path fill="none" stroke="rgb(0,0,0)" stroke-linejoin="round" d="M 9355,2512 L 9555,2512"/>
 <path fill="none" stroke="rgb(0,0,0)" stroke-linejoin="round" d="M 9906,3719 L 9906,3024 9906,2330"/>
 <path fill="none" stroke="rgb(0,0,0)" stroke-linejoin="round" d="M 10006,3719 L 9806,3719"/>
 <path fill="none" stroke="rgb(0,0,0)" stroke-linejoin="round" d="M 9806,2330 L 10006,2330"/>
 <path fill="none" stroke="rgb(0,0,0)" stroke-linejoin="round" d="M 10808,3416 L 10808,3200 10808,2983"/>
 <path fill="none" stroke="rgb(0,0,0)" stroke-linejoin="round" d="M 10908,3416 L 10708,3416"/>
 <path fill="none" stroke="rgb(0,0,0)" stroke-linejoin="round" d="M 10708,2983 L 10908,2983"/>
 <path fill="none" stroke="rgb(0,0,0)" stroke-linejoin="round" d="M 12161,3840 L 12161,3316 12161,2793"/>
 <path fill="none" stroke="rgb(0,0,0)" stroke-linejoin="round" d="M 12261,3840 L 12061,3840"/>
 <path fill="none" stroke="rgb(0,0,0)" stroke-linejoin="round" d="M 12061,2793 L 12261,2793"/>
 <path fill="none" stroke="rgb(0,0,0)" stroke-linejoin="round" d="M 12713,3524 L 12713,3082 12713,2641"/>
 <path fill="none" stroke="rgb(0,0,0)" stroke-linejoin="round" d="M 12813,3524 L 12613,3524"/>
 <path fill="none" stroke="rgb(0,0,0)" stroke-linejoin="round" d="M 12613,2641 L 12813,2641"/>
 <path fill="none" stroke="rgb(0,0,0)" stroke-linejoin="round" d="M 13464,3367 L 13464,2937 13464,2506"/>
 <path fill="none" stroke="rgb(0,0,0)" stroke-linejoin="round" d="M 13564,3367 L 13364,3367"/>
 <path fill="none" stroke="rgb(0,0,0)" stroke-linejoin="round" d="M 13364,2506 L 13564,2506"/>
 <path fill="none" stroke="rgb(0,0,0)" stroke-linejoin="round" d="M 13514,3230 L 13514,2761 13514,2292"/>
 <path fill="none" stroke="rgb(0,0,0)" stroke-linejoin="round" d="M 13614,3230 L 13414,3230"/>
 <path fill="none" stroke="rgb(0,0,0)" stroke-linejoin="round" d="M 13414,2292 L 13614,2292"/>
 <path fill="none" stroke="rgb(0,0,0)" stroke-linejoin="round" d="M 14066,3163 L 14066,2907 14066,2652"/>
 <path fill="none" stroke="rgb(0,0,0)" stroke-linejoin="round" d="M 14166,3163 L 13966,3163"/>
 <path fill="none" stroke="rgb(0,0,0)" stroke-linejoin="round" d="M 13966,2652 L 14166,2652"/>
 <path fill="none" stroke="rgb(0,0,0)" stroke-linejoin="round" d="M 14868,3003 L 14868,2411 14868,1818"/>
 <path fill="none" stroke="rgb(0,0,0)" stroke-linejoin="round" d="M 14968,3003 L 14768,3003"/>
 <path fill="none" stroke="rgb(0,0,0)" stroke-linejoin="round" d="M 14768,1818 L 14968,1818"/>
 <path fill="none" stroke="rgb(0,0,0)" stroke-linejoin="round" d="M 15269,2905 L 15269,2352 15269,1800"/>
 <path fill="none" stroke="rgb(0,0,0)" stroke-linejoin="round" d="M 15369,2905 L 15169,2905"/>
 <path fill="none" stroke="rgb(0,0,0)" stroke-linejoin="round" d="M 15169,1800 L 15369,1800"/>
 <path fill="none" stroke="rgb(0,0,0)" stroke-linejoin="round" d="M 16121,3987 L 16121,3112 16121,2237"/>
 <path fill="none" stroke="rgb(0,0,0)" stroke-linejoin="round" d="M 16221,3987 L 16021,3987"/>
 <path fill="none" stroke="rgb(0,0,0)" stroke-linejoin="round" d="M 16021,2237 L 16221,2237"/>
 <path fill="none" stroke="rgb(0,0,0)" stroke-linejoin="round" d="M 20029,3634 L 20029,3141 20029,2649"/>
 <path fill="none" stroke="rgb(0,0,0)" stroke-linejoin="round" d="M 20129,3634 L 19929,3634"/>
 <path fill="none" stroke="rgb(0,0,0)" stroke-linejoin="round" d="M 19929,2649 L 20129,2649"/>
 <path fill="none" stroke="rgb(0,0,0)" stroke-linejoin="round" d="M 21683,2793 L 21683,2644 21683,2496"/>
 <path fill="none" stroke="rgb(0,0,0)" stroke-linejoin="round" d="M 21783,2793 L 21583,2793"/>
 <path fill="none" stroke="rgb(0,0,0)" stroke-linejoin="round" d="M 21583,2496 L 21783,2496"/>
 <path fill="none" stroke="rgb(0,0,0)" stroke-linejoin="round" d="M 21884,3428 L 21884,3024 21884,2620"/>
 <path fill="none" stroke="rgb(0,0,0)" stroke-linejoin="round" d="M 21984,3428 L 21784,3428"/>
 <path fill="none" stroke="rgb(0,0,0)" stroke-linejoin="round" d="M 21784,2620 L 21984,2620"/>
 <path fill="none" stroke="rgb(0,0,0)" stroke-linejoin="round" d="M 22134,4409 L 22134,3784 22134,3159"/>
 <path fill="none" stroke="rgb(0,0,0)" stroke-linejoin="round" d="M 22234,4409 L 22034,4409"/>
 <path fill="none" stroke="rgb(0,0,0)" stroke-linejoin="round" d="M 22034,3159 L 22234,3159"/>
 <path fill="none" stroke="rgb(0,0,0)" stroke-linejoin="round" d="M 26996,3318 L 26996,2878 26996,2439"/>
 <path fill="none" stroke="rgb(0,0,0)" stroke-linejoin="round" d="M 27096,3318 L 26896,3318"/>
 <path fill="none" stroke="rgb(0,0,0)" stroke-linejoin="round" d="M 26896,2439 L 27096,2439"/>
 <text class="TextShape"><tspan class="TextParagraph" font-family="Liberation Sans, sans-serif" font-size="353px" font-weight="400"><tspan class="TextPosition" x="1030" y="14278"><tspan fill="rgb(0,0,0)" stroke="none">250000</tspan></tspan></tspan></text>
 <text class="TextShape"><tspan class="TextParagraph" font-family="Liberation Sans, sans-serif" font-size="353px" font-weight="400"><tspan class="TextPosition" x="6042" y="14278"><tspan fill="rgb(0,0,0)" stroke="none">350000</tspan></tspan></tspan></text>
 <text class="TextShape"><tspan class="TextParagraph" font-family="Liberation Sans, sans-serif" font-size="353px" font-weight="400"><tspan class="TextPosition" x="11054" y="14278"><tspan fill="rgb(0,0,0)" stroke="none">450000</tspan></tspan></tspan></text>
 <text class="TextShape"><tspan class="TextParagraph" font-family="Liberation Sans, sans-serif" font-size="353px" font-weight="400"><tspan class="TextPosition" x="16066" y="14278"><tspan fill="rgb(0,0,0)" stroke="none">550000</tspan></tspan></tspan></text>
 <text class="TextShape"><tspan class="TextParagraph" font-family="Liberation Sans, sans-serif" font-size="353px" font-weight="400"><tspan class="TextPosition" x="21078" y="14278"><tspan fill="rgb(0,0,0)" stroke="none">650000</tspan></tspan></tspan></text>
 <text class="TextShape"><tspan class="TextParagraph" font-family="Liberation Sans, sans-serif" font-size="353px" font-weight="400"><tspan class="TextPosition" x="26090" y="14278"><tspan fill="rgb(0,0,0)" stroke="none">750000</tspan></tspan></tspan></text>
 <text class="TextShape"><tspan class="TextParagraph" font-family="Liberation Sans, sans-serif" font-size="353px" font-weight="400"><tspan class="TextPosition" x="675" y="13831"><tspan fill="rgb(0,0,0)" stroke="none">0.91</tspan></tspan></tspan></text>
 <text class="TextShape"><tspan class="TextParagraph" font-family="Liberation Sans, sans-serif" font-size="353px" font-weight="400"><tspan class="TextPosition" x="675" y="11942"><tspan fill="rgb(0,0,0)" stroke="none">0.92</tspan></tspan></tspan></text>
 <text class="TextShape"><tspan class="TextParagraph" font-family="Liberation Sans, sans-serif" font-size="353px" font-weight="400"><tspan class="TextPosition" x="675" y="10053"><tspan fill="rgb(0,0,0)" stroke="none">0.93</tspan></tspan></tspan></text>
 <text class="TextShape"><tspan class="TextParagraph" font-family="Liberation Sans, sans-serif" font-size="353px" font-weight="400"><tspan class="TextPosition" x="675" y="8165"><tspan fill="rgb(0,0,0)" stroke="none">0.94</tspan></tspan></tspan></text>
 <text class="TextShape"><tspan class="TextParagraph" font-family="Liberation Sans, sans-serif" font-size="353px" font-weight="400"><tspan class="TextPosition" x="675" y="6276"><tspan fill="rgb(0,0,0)" stroke="none">0.95</tspan></tspan></tspan></text>
 <text class="TextShape"><tspan class="TextParagraph" font-family="Liberation Sans, sans-serif" font-size="353px" font-weight="400"><tspan class="TextPosition" x="675" y="4388"><tspan fill="rgb(0,0,0)" stroke="none">0.96</tspan></tspan></tspan></text>
 <text class="TextShape"><tspan class="TextParagraph" font-family="Liberation Sans, sans-serif" font-size="353px" font-weight="400"><tspan class="TextPosition" x="675" y="2499"><tspan fill="rgb(0,0,0)" stroke="none">0.97</tspan></tspan></tspan></text>
 <text class="TextShape"><tspan class="TextParagraph" font-family="Liberation Sans, sans-serif" font-size="353px" font-weight="400"><tspan class="TextPosition" x="675" y="611"><tspan fill="rgb(0,0,0)" stroke="none">0.98</tspan></tspan></tspan></text>
 <path fill="none" stroke="rgb(131,202,255)" stroke-width="80" stroke-linejoin="round" d="M 29946,7076 L 30746,7076"/>
 <path fill="rgb(131,202,255)" stroke="none" d="M 30240,6971 L 30240,7182 30451,7182 30451,6971 30240,6971 Z"/>
 <path fill="none" stroke="rgb(131,202,255)" stroke-linejoin="round" d="M 30240,6971 L 30240,7182 30451,7182 30451,6971 30240,6971 Z"/>
 <path fill="none" stroke="rgb(204,255,153)" stroke-width="80" stroke-linejoin="round" d="M 29946,7573 L 30746,7573"/>
 <path fill="rgb(204,255,153)" stroke="none" d="M 30240,7573 L 30346,7679 30451,7573 30346,7468 30240,7573 Z"/>
 <path fill="none" stroke="rgb(204,255,153)" stroke-linejoin="round" d="M 30240,7573 L 30346,7679 30451,7573 30346,7468 30240,7573 Z"/>
 <text class="TextShape"><tspan class="TextParagraph" font-family="Liberation Sans, sans-serif" font-size="353px" font-weight="400"><tspan class="TextPosition" x="30846" y="7196"><tspan fill="rgb(0,0,0)" stroke="none">mean_train_score</tspan></tspan></tspan></text>
 <text class="TextShape"><tspan class="TextParagraph" font-family="Liberation Sans, sans-serif" font-size="353px" font-weight="400"><tspan class="TextPosition" x="30846" y="7693"><tspan fill="rgb(0,0,0)" stroke="none">mean_test_score</tspan></tspan></tspan></text>
</svg>